# xmcd
#
# Track frame offsets: 
#        150
#        13677
#        37975
#        58375
#        83250
#        103937
#        119940
#        152902
#        177607
#        198430
#        218025
#
# Disc length: 3297 seconds
#
# Revision: 3
# Processed by: cddbd v1.4PL0 Copyright (c) Steve Scherf et al.
# Submitted via: ExactAudioCopy v0.90b4
#
DISCID=9d0cdf0b
DTITLE=Sade - LIVE&ALIVE
DYEAR=1993
DGENRE=Blues
TTITLE0=Instrumental Opening
TTITLE1=Cherry Pie
TTITLE2=Nothing Can Come Between Us
TTITLE3=The Sweetest Taboo
TTITLE4=Smooth Operator
TTITLE5=Keep Looking
TTITLE6=Is It A Crime ?
TTITLE7=No Ordinary Love
TTITLE8=love Is Stranger Than pride
TTITLE9=Pearls
TTITLE10=Cherish The Day
EXTD=
EXTT0=
EXTT1=
EXTT2=
EXTT3=
EXTT4=
EXTT5=
EXTT6=
EXTT7=
EXTT8=
EXTT9=
EXTT10=
PLAYORDER=
